<svg width="36" height="40" viewBox="0 0 36 40" fill="none" xmlns="http://www.w3.org/2000/svg">
<rect width="36" height="40" fill="white"/>
<path d="M24.6541 31.0863C26.55 31.0863 28.0929 29.6398 28.0929 27.8615V12.1477C28.0929 10.3703 26.55 8.92383 24.6541 8.92383H10.9584C9.06244 8.92383 7.51953 10.3703 7.51953 12.1477V27.8615C7.51953 29.6398 9.06244 31.0863 10.9584 31.0863H24.6541ZM9.48953 27.8615V12.1477C9.48953 11.3884 10.1484 10.7707 10.9584 10.7707H24.6541C25.464 10.7707 26.1229 11.3884 26.1229 12.1477V27.8615C26.1229 28.6217 25.464 29.2394 24.6541 29.2394H10.9584C10.1484 29.2394 9.48953 28.6217 9.48953 27.8615Z" fill="#4B5563"/>
<path d="M17.7586 25.291H13.4088C12.8644 25.291 12.4238 25.704 12.4238 26.2145C12.4238 26.7249 12.8644 27.1379 13.4088 27.1379H17.7586C18.303 27.1379 18.7436 26.7249 18.7436 26.2145C18.7436 25.704 18.303 25.291 17.7586 25.291Z" fill="#4B5563"/>
<path d="M22.2046 20.8799H13.4088C12.8644 20.8799 12.4238 21.2929 12.4238 21.8033C12.4238 22.3137 12.8644 22.7268 13.4088 22.7268H22.2046C22.749 22.7268 23.1896 22.3137 23.1896 21.8033C23.1896 21.2929 22.749 20.8799 22.2046 20.8799Z" fill="#4B5563"/>
<path d="M13.5437 18.4665L16.0216 16.0425L19.0882 17.8749C19.4912 18.1166 20.028 18.049 20.3502 17.7126L23.5101 14.4112C23.8737 14.0315 23.8401 13.448 23.4351 13.1072C23.0311 12.7663 22.4087 12.7987 22.0442 13.1775L19.4422 15.8964L16.3987 14.0775C16.0043 13.8439 15.4849 13.8998 15.1588 14.2173L12.122 17.1878C11.7449 17.5566 11.7584 18.141 12.1509 18.4936C12.5423 18.8458 13.1655 18.8353 13.5437 18.4665Z" fill="#4B5563"/>
</svg>
